# xmcd
# 
# Track frame offsets:
#     150
#     13083
#     31024
#     44235
#     55601
#     67553
#     82928
#     98121
#     111865
#     127494
# 
# Disc length: 1925
# 
# Revision: 4
# Processed by: cddbd v1.5.2PL0 Copyright (c) Steve Scherf et al.
# Submitted via: fre:ac v1.0.31
# 
DISCID=7c07830a
DTITLE=Valentín Elizalde - Lobo Domesticado
DYEAR=2007
DGENRE=Banda
TTITLE0=Lobo Domesticado
TTITLE1=Por Las Parrandas
TTITLE2=Las Mentiras De La Pulga
TTITLE3=La Vida No Es
TTITLE4=Vestido Rojo
TTITLE5=El Corrido De Manuel
TTITLE6=No Dejare De Amarte
TTITLE7=Los Pilares De La Carcel
TTITLE8=Por Que Te Extraño
TTITLE9=Aunque Te Enamores
EXTD=
EXTT0=
EXTT1=
EXTT2=
EXTT3=
EXTT4=
EXTT5=
EXTT6=
EXTT7=
EXTT8=
EXTT9=
PLAYORDER=
